<svg xmlns="http://www.w3.org/2000/svg" width="480" height="640" viewBox="0 0 240 320" role="img" aria-label="CYD Pulse Dashboard portrait locked screen">
  <rect width="240" height="320" fill="#000000"/>
  <rect x="0" y="0" width="240" height="58" fill="#000000"/>
  <line x1="0" y1="57" x2="240" y2="57" stroke="#39e7ff"/>

  <text x="10" y="16" fill="#ffffff" font-family="Arial, sans-serif" font-size="8">PulseSensor.com</text>
  <circle cx="32" cy="38" r="8" fill="#00ffff"/>
  <circle cx="48" cy="38" r="8" fill="#00ffff"/>
  <path d="M23 39 L57 39 L40 60 Z" fill="#00ffff"/>
  <circle cx="33" cy="38" r="7" fill="#ff0000"/>
  <circle cx="47" cy="38" r="7" fill="#ff0000"/>
  <path d="M25 40 L55 40 L40 58 Z" fill="#ff0000"/>
  <text x="62" y="53" fill="#ffffff" font-family="Arial, sans-serif" font-size="8">QUALIFIED BEAT</text>

  <text x="110" y="20" fill="#00ffff" font-family="Arial, sans-serif" font-size="8">VOL</text>
  <rect x="138" y="4" width="22" height="22" rx="4" fill="#080808" stroke="#39e7ff"/>
  <rect x="184" y="4" width="22" height="22" rx="4" fill="#080808" stroke="#39e7ff"/>
  <text x="143" y="25" fill="#ffffff" font-family="Arial, sans-serif" font-size="16">-</text>
  <text x="189" y="25" fill="#ffffff" font-family="Arial, sans-serif" font-size="16">+</text>
  <text x="170" y="19" fill="#ffffff" font-family="Arial, sans-serif" font-size="8">1</text>
  <rect x="214" y="4" width="22" height="22" rx="4" fill="#080808" stroke="#39e7ff"/>
  <path d="M225 12a7 7 0 1 0 6 10" fill="none" stroke="#00ffff" stroke-width="2"/>
  <path d="M226 9h7v7" fill="none" stroke="#00ffff" stroke-width="2"/>
  <path d="M230 7l7 2-3 6z" fill="#00ffff"/>

  <rect x="6" y="64" width="228" height="166" rx="6" fill="#000800" stroke="#39e7ff"/>
  <rect x="8" y="66" width="224" height="162" fill="#000000"/>
  <g stroke="#2945aa" opacity="0.95">
    <path d="M8 66V228 M36 66V228 M64 66V228 M92 66V228 M120 66V228 M148 66V228 M176 66V228 M204 66V228 M232 66V228"/>
    <path d="M8 66H232 M8 99H232 M8 132H232 M8 165H232 M8 198H232"/>
  </g>
  <text x="14" y="79" fill="#ffffff" font-family="Arial, sans-serif" font-size="8">LIVE LINE</text>
  <text x="184" y="79" fill="#ffffff" font-family="Arial, sans-serif" font-size="8">THR 550</text>
  <line x1="8" y1="146" x2="232" y2="146" stroke="#00ffff" stroke-dasharray="1 5"/>
  <polyline points="8,179 18,175 28,166 38,140 48,96 58,78 68,125 78,176 88,194 98,187 108,171 118,134 128,88 138,82 148,139 158,184 168,196 178,188 188,168 198,126 208,84 218,98 232,142" fill="none" stroke="#ffffff" stroke-width="2"/>
  <circle cx="208" cy="84" r="3" fill="#00ffff"/>
  <circle cx="211" cy="90" r="3" fill="#00ffff" opacity="0.85"/>

  <rect x="8" y="240" width="68" height="72" rx="6" fill="#080808" stroke="#05f3c0"/>
  <text x="16" y="258" fill="#ffffff" font-family="Arial, sans-serif" font-size="8">BPM</text>
  <text x="14" y="294" fill="#ffffff" font-family="Arial, sans-serif" font-size="28" font-weight="700">72</text>

  <rect x="84" y="240" width="68" height="72" rx="6" fill="#080808" stroke="#05f3c0"/>
  <text x="92" y="258" fill="#ffffff" font-family="Arial, sans-serif" font-size="8">IBI</text>
  <text x="90" y="290" fill="#ffffff" font-family="Arial, sans-serif" font-size="20" font-weight="700">833</text>
  <text x="126" y="304" fill="#ffffff" font-family="Arial, sans-serif" font-size="8">ms</text>

  <rect x="160" y="240" width="72" height="72" rx="6" fill="#080808" stroke="#00ff00"/>
  <text x="168" y="258" fill="#ffffff" font-family="Arial, sans-serif" font-size="8">SIG</text>
  <text x="168" y="270" fill="#ffffff" font-family="Arial, sans-serif" font-size="8">GPIO35</text>
  <g fill="#00ff00">
    <rect x="168" y="284" width="3" height="8"/>
    <rect x="173" y="284" width="3" height="8"/>
    <rect x="178" y="284" width="3" height="8"/>
    <rect x="183" y="284" width="3" height="8"/>
    <rect x="188" y="284" width="3" height="8"/>
    <rect x="193" y="284" width="3" height="8"/>
    <rect x="198" y="284" width="3" height="8"/>
    <rect x="203" y="284" width="3" height="8"/>
    <rect x="208" y="284" width="3" height="8"/>
    <rect x="213" y="284" width="3" height="8"/>
    <rect x="218" y="284" width="3" height="8"/>
    <rect x="223" y="284" width="3" height="8"/>
  </g>
</svg>
